<svg width="256" height="125" viewBox="0 0 256 125" fill="none" xmlns="http://www.w3.org/2000/svg">
<g clip-path="url(#clip0_909_646)">
<mask id="mask0_909_646" style="mask-type:alpha" maskUnits="userSpaceOnUse" x="117" y="55" width="115" height="101">
<path d="M142.375 69.2487C150.107 55.8565 167.232 51.268 180.624 59L231.792 88.5421L193.187 155.408L117.77 111.866L142.375 69.2487Z" fill="black"/>
</mask>
<g mask="url(#mask0_909_646)">
<path d="M184.315 67.704C197.784 59.968 211.217 52.169 224.732 44.514C237.56 37.245 252.652 43.948 255.561 58.092C257.244 66.274 253.591 75.113 246.204 79.418C221.986 93.531 197.733 107.588 173.359 121.43C165.815 125.714 158.044 124.926 151.169 119.676C144.185 114.346 141.984 106.994 143.622 98.437C145.492 91.923 149.772 87.568 155.609 84.31C165.259 78.924 174.754 73.254 184.315 67.704Z" fill="white"/>
</g>
<path d="M194.203 62.0786C180.768 54.2826 167.299 46.5476 153.911 38.6726C141.202 31.1966 139.462 14.7746 150.256 5.18259C156.5 -0.36441 165.981 -1.62141 173.403 2.62359C197.735 16.5406 222.035 30.5166 246.209 44.7036C253.691 49.0946 256.893 56.2196 255.786 64.7986C254.661 73.5106 249.396 79.0926 241.166 81.9536C234.589 83.5916 228.678 82.0616 222.938 78.6356C213.448 72.9706 203.79 67.5826 194.203 62.0786Z" fill="#F7F7F7"/>
<mask id="mask1_909_646" style="mask-type:alpha" maskUnits="userSpaceOnUse" x="21" y="-20" width="113" height="98">
<path d="M43.9299 -5.75128C51.6619 -19.1435 68.7864 -23.732 82.1786 -16L133.347 13.5421L96.4172 77.5065L21.0001 33.9644L43.9299 -5.75128Z" fill="#FF0000"/>
</mask>
<g mask="url(#mask1_909_646)">
<path d="M71.7518 56.563C63.1308 61.461 54.5048 66.35 45.8918 71.263C40.8548 74.137 35.8718 77.109 30.8088 79.935C20.6058 85.63 8.48381 82.292 2.69881 72.261C-2.82219 62.689 0.35081 50.279 10.1768 44.543C34.2018 30.52 58.2888 16.599 82.4628 2.83303C89.8768 -1.38797 97.5688 -0.856974 104.425 4.19003C111.661 9.51703 114.03 17.013 112.405 25.8C111.397 27.927 110.795 30.42 109.285 32.095C106.831 34.82 104.041 37.429 100.935 39.345C91.3228 45.272 81.4948 50.85 71.7518 56.563Z" fill="white"/>
</g>
<path d="M61.867 62.0566C70.42 67.0726 78.967 72.0996 87.528 77.1016C92.535 80.0276 97.6 82.8566 102.579 85.8276C112.613 91.8176 115.784 103.984 109.989 114.009C104.459 123.577 92.126 127.035 82.245 121.392C58.088 107.597 33.989 93.6986 9.98103 79.6456C2.61803 75.3356 -0.767972 68.4086 0.175028 59.9476C1.17003 51.0166 6.47703 45.2176 14.9 42.2306C17.245 42.0416 19.705 41.3156 21.911 41.7856C25.498 42.5496 29.153 43.6606 32.365 45.3926C42.304 50.7526 52.048 56.4746 61.867 62.0566Z" fill="#F7F7F7"/>
</g>
<defs>
<clipPath id="clip0_909_646">
<rect width="256" height="125" fill="white"/>
</clipPath>
</defs>
</svg>
