<svg width="164" height="164" viewBox="0 0 164 164" fill="none" xmlns="http://www.w3.org/2000/svg">
<rect width="164" height="164" rx="23.0625" fill="#0C0C0D"/>
<path d="M126.039 46.8926C125.639 45.9671 125.062 45.1284 124.342 44.4235C123.621 43.7165 122.77 43.1546 121.837 42.7685C120.869 42.3665 119.831 42.1607 118.783 42.1631C117.313 42.1631 115.879 42.5657 114.632 43.3261C114.334 43.508 114.051 43.7078 113.782 43.9255C113.514 43.7078 113.231 43.508 112.932 43.3261C111.686 42.5657 110.252 42.1631 108.781 42.1631C107.723 42.1631 106.697 42.3659 105.728 42.7685C104.791 43.1561 103.948 43.7138 103.223 44.4235C102.501 45.1276 101.925 45.9665 101.526 46.8926C101.112 47.8558 100.9 48.8787 100.9 49.9313C100.9 50.9244 101.103 51.9591 101.505 53.0118C101.842 53.8915 102.325 54.804 102.943 55.7255C103.921 57.1837 105.266 58.7045 106.936 60.2462C109.703 62.8019 112.443 64.5672 112.56 64.6388L113.266 65.0921C113.58 65.2919 113.982 65.2919 114.295 65.0921L115.002 64.6388C115.118 64.5642 117.856 62.8019 120.626 60.2462C122.296 58.7045 123.641 57.1837 124.619 55.7255C125.236 54.804 125.722 53.8915 126.056 53.0118C126.459 51.9591 126.662 50.9244 126.662 49.9313C126.665 48.8787 126.453 47.8558 126.039 46.8926V46.8926Z" fill="url(#paint0_linear_908_602)"/>
<path d="M124.475 112H101.942V65.9951H124.475V112ZM102.881 88.2465L103.068 92.7531C102.881 94.0675 102.255 95.601 101.191 97.3535C100.189 99.1061 98.7809 100.921 96.9658 102.799C95.1506 104.677 92.9286 106.429 90.2997 108.057C87.6709 109.622 84.6665 110.905 81.2865 111.906C77.9066 112.908 74.1511 113.408 70.02 113.408C65.889 113.408 61.977 112.97 58.2841 112.094C54.5912 111.28 51.3051 109.903 48.4259 107.963C45.5467 106.022 43.2934 103.425 41.666 100.17C40.0386 96.8528 39.2249 92.7218 39.2249 87.777V65.9951H61.7579V85.4298C61.7579 88.8724 62.3213 91.5325 63.4479 93.4103C64.6372 95.288 66.4836 96.6024 68.9873 97.3535C71.4909 98.0421 74.7144 98.3863 78.6577 98.3863C82.3506 98.3863 85.7618 97.8543 88.8914 96.7902C92.0836 95.6636 94.8689 94.3179 97.2474 92.7531C99.6885 91.1883 101.566 89.6861 102.881 88.2465Z" fill="url(#paint1_linear_908_602)"/>
<defs>
<linearGradient id="paint0_linear_908_602" x1="113.781" y1="42.1631" x2="113.781" y2="65.2419" gradientUnits="userSpaceOnUse">
<stop stop-color="#FF59C7"/>
<stop offset="0.0001" stop-color="#FF59C7"/>
<stop offset="1" stop-color="#FF00A9"/>
</linearGradient>
<linearGradient id="paint1_linear_908_602" x1="82" y1="25" x2="82" y2="138" gradientUnits="userSpaceOnUse">
<stop stop-color="#FF59C7"/>
<stop offset="0.0001" stop-color="#FF59C7"/>
<stop offset="1" stop-color="#FF00A9"/>
</linearGradient>
</defs>
</svg>
