<svg width="128" height="128" viewBox="0 0 128 128" fill="none" xmlns="http://www.w3.org/2000/svg">
<rect width="128" height="128" rx="18" fill="#151618"/>
<path d="M98.3045 37.0869C97.9925 36.3645 97.5427 35.7099 96.9802 35.1597C96.4172 34.6079 95.7535 34.1694 95.0251 33.868C94.2698 33.5542 93.4597 33.3936 92.6418 33.3955C91.4944 33.3955 90.3749 33.7097 89.402 34.3032C89.1693 34.4452 88.9481 34.6011 88.7387 34.771C88.5292 34.6011 88.3081 34.4452 88.0753 34.3032C87.1025 33.7097 85.983 33.3955 84.8355 33.3955C84.0093 33.3955 83.2086 33.5538 82.4522 33.868C81.7214 34.1706 81.0627 34.6058 80.4972 35.1597C79.9339 35.7093 79.484 36.364 79.1728 37.0869C78.8493 37.8386 78.6841 38.6369 78.6841 39.4585C78.6841 40.2336 78.8423 41.0412 79.1566 41.8628C79.4196 42.5494 79.7966 43.2616 80.2784 43.9808C81.0418 45.1189 82.0915 46.3059 83.3948 47.5092C85.5547 49.5038 87.6936 50.8817 87.7844 50.9375L88.336 51.2913C88.5804 51.4472 88.8946 51.4472 89.139 51.2913L89.6906 50.9375C89.7814 50.8793 91.918 49.5038 94.0802 47.5092C95.3835 46.3059 96.4332 45.1189 97.1966 43.9808C97.6784 43.2616 98.0578 42.5494 98.3185 41.8628C98.6327 41.0412 98.7909 40.2336 98.7909 39.4585C98.7933 38.6369 98.628 37.8386 98.3045 37.0869V37.0869Z" fill="url(#paint0_linear_901_626)"/>
<path d="M97.084 88H79.4973V52.0938H97.084V88ZM80.23 69.4607L80.3766 72.978C80.23 74.0039 79.7415 75.2008 78.911 76.5686C78.1294 77.9365 77.0302 79.3532 75.6135 80.8188C74.1968 82.2843 72.4626 83.6522 70.4108 84.9223C68.359 86.1436 66.0141 87.1451 63.3761 87.9267C60.7381 88.7084 57.8069 89.0992 54.5827 89.0992C51.3585 89.0992 48.3052 88.7572 45.423 88.0733C42.5407 87.4382 39.976 86.3635 37.7288 84.849C35.4816 83.3346 33.7229 81.3073 32.4527 78.767C31.1826 76.1778 30.5475 72.9536 30.5475 69.0943V52.0938H48.1342V67.2623C48.1342 69.9492 48.5739 72.0254 49.4532 73.4909C50.3814 74.9565 51.8226 75.9824 53.7767 76.5686C55.7307 77.106 58.2466 77.3747 61.3243 77.3747C64.2066 77.3747 66.869 76.9594 69.3116 76.129C71.8031 75.2496 73.977 74.1993 75.8333 72.978C77.7386 71.7567 79.2041 70.5843 80.23 69.4607Z" fill="url(#paint1_linear_901_626)"/>
<defs>
<linearGradient id="paint0_linear_901_626" x1="88.7375" y1="33.3955" x2="88.7375" y2="51.4082" gradientUnits="userSpaceOnUse">
<stop stop-color="#FF59C7"/>
<stop offset="0.0001" stop-color="#FF59C7"/>
<stop offset="1" stop-color="#FF00A9"/>
</linearGradient>
<linearGradient id="paint1_linear_901_626" x1="64.25" y1="20" x2="64.25" y2="108" gradientUnits="userSpaceOnUse">
<stop stop-color="#FF59C7"/>
<stop offset="0.0001" stop-color="#FF59C7"/>
<stop offset="1" stop-color="#FF00A9"/>
</linearGradient>
</defs>
</svg>
